<svg width="113" height="28" viewBox="0 0 113 28" fill="none" xmlns="http://www.w3.org/2000/svg">
<rect y="0.50293" width="26.9155" height="26.9939" rx="13.4577" fill="white"/>
<path d="M14.6404 21.1994C13.6696 21.1994 12.7559 21.1994 11.7852 21.1994C11.7852 18.1354 11.7852 15.0714 11.7852 11.9787C12.6703 11.9787 13.584 11.9787 14.4977 11.9787C14.4977 12.3796 14.4977 12.7805 14.4977 13.21C14.5262 13.1814 14.5548 13.1814 14.5548 13.1814C15.1544 12.2078 16.0395 11.7782 17.153 11.7496C17.7812 11.721 18.4094 11.8069 18.9804 12.0932C19.7228 12.4369 20.1511 13.0668 20.3795 13.84C20.5793 14.47 20.6365 15.1 20.6365 15.73C20.6365 17.5054 20.6365 19.2808 20.6365 21.0562C20.6365 21.0849 20.6365 21.1135 20.6365 21.1421C19.6942 21.1421 18.752 21.1421 17.7812 21.1421C17.7812 21.0849 17.7812 21.0276 17.7812 20.9417C17.7812 19.424 17.7812 17.9349 17.7812 16.4172C17.7812 16.0736 17.7526 15.73 17.6955 15.3863C17.5242 14.4414 16.8961 14.1264 16.0395 14.2409C15.24 14.3268 14.8117 14.8136 14.669 15.6727C14.6119 15.9877 14.6119 16.3027 14.6119 16.6177C14.6119 18.0495 14.6119 19.5099 14.6119 20.9417C14.6404 21.0562 14.6404 21.1135 14.6404 21.1994Z" fill="#111617"/>
<path d="M7.12891 12.0071C8.07114 12.0071 9.01338 12.0071 9.95561 12.0071C9.95561 15.0711 9.95561 18.1351 9.95561 21.1992C9.01338 21.1992 8.07114 21.1992 7.12891 21.1992C7.12891 18.1351 7.12891 15.0711 7.12891 12.0071Z" fill="#111617"/>
<path d="M10.1859 9.05709C10.1859 9.97329 9.44352 10.7177 8.55839 10.7463C7.64471 10.7463 6.90234 10.0019 6.90234 9.08572C6.90234 8.16953 7.64471 7.42512 8.55839 7.42512C9.44352 7.39648 10.1859 8.1409 10.1859 9.05709Z" fill="#111617"/>
<rect x="42.916" y="0.50293" width="26.9155" height="26.9939" rx="13.4577" fill="white"/>
<path d="M59.0144 7.42432C59.2505 7.45026 59.4605 7.45026 59.6966 7.47619C59.8541 7.47619 60.0115 7.50213 60.169 7.52807C60.169 8.22841 60.169 8.90282 60.169 9.6291C60.1165 9.6291 60.0378 9.6291 59.9853 9.6291C59.5392 9.6291 59.0931 9.6291 58.647 9.65504C58.0959 9.68098 57.781 9.9663 57.7548 10.511C57.7286 11.0817 57.7548 11.6523 57.7548 12.2489C58.5158 12.2489 59.303 12.2489 60.0903 12.2489C59.9853 13.0271 59.8803 13.8052 59.7754 14.5834C59.0931 14.5834 58.4371 14.5834 57.7548 14.5834C57.7548 16.5807 57.7548 18.5779 57.7548 20.5752C56.9413 20.5752 56.1279 20.5752 55.3144 20.5752C55.3144 18.5779 55.3144 16.6066 55.3144 14.5834C54.6321 14.5834 53.9498 14.5834 53.2676 14.5834C53.2676 13.8052 53.2676 13.0271 53.2676 12.2489C53.9498 12.2489 54.6059 12.2489 55.3144 12.2489C55.3144 12.1711 55.3144 12.1452 55.3144 12.0933C55.3144 11.4707 55.3144 10.8742 55.3144 10.2516C55.3406 9.52535 55.5768 8.85094 56.1016 8.28029C56.4952 7.86527 56.9938 7.63183 57.5711 7.50213C57.7286 7.47619 57.886 7.45026 58.0172 7.42432C58.3321 7.42432 58.6732 7.42432 59.0144 7.42432Z" fill="#111617"/>
<rect x="85.8301" y="0.50293" width="26.9155" height="26.9939" rx="13.4577" fill="white"/>
<path d="M92.7324 18.4008C94.2531 18.5218 95.6568 18.1587 96.885 17.1904C95.5983 17.0694 94.721 16.4036 94.2531 15.1327C94.6625 15.1932 95.0719 15.1932 95.5398 15.0722C94.8379 14.8906 94.3116 14.5275 93.9022 14.0434C93.4927 13.4987 93.2588 12.8935 93.2588 12.1672C93.6682 12.3488 94.0776 12.5303 94.5455 12.5303C93.9022 12.0462 93.5512 11.5015 93.3758 10.7753C93.2003 10.049 93.3173 9.32279 93.6682 8.65707C95.1889 10.5332 97.1189 11.562 99.5169 11.7436C99.5169 11.441 99.4584 11.1989 99.5169 10.8963C99.5753 9.68591 100.453 8.53603 101.564 8.23343C102.617 7.93083 103.552 8.23343 104.313 8.95967C104.371 9.02019 104.43 9.02019 104.488 9.02019C105.073 8.89915 105.599 8.65707 106.184 8.35447C105.95 9.02019 105.541 9.56487 105.015 9.92799C105.015 9.92799 105.015 9.92799 105.015 9.98851C105.249 9.92799 105.541 9.86747 105.775 9.80695C106.009 9.74643 106.301 9.62539 106.535 9.56487C106.184 10.049 105.833 10.5332 105.366 10.8963C105.19 11.0173 105.132 11.1384 105.132 11.3805C105.132 12.7119 104.839 13.9223 104.313 15.1327C103.611 16.5852 102.675 17.7956 101.33 18.6429C100.394 19.2481 99.3414 19.6112 98.2301 19.7928C97.4698 19.9138 96.7095 19.9138 95.9492 19.7928C94.7794 19.4296 93.7267 19.0665 92.7324 18.4008Z" fill="#111617"/>
</svg>
